<svg viewBox="0 0 200 130" xmlns="http://www.w3.org/2000/svg">
  <!-- Cassette Body -->
  <rect x="5" y="5" width="190" height="120" rx="10" fill="#333" stroke="#555" stroke-width="2" />
  <!-- Label Area -->
  <rect x="20" y="20" width="160" height="70" rx="5" fill="#eee" />
  <line x1="20" y1="35" x2="180" y2="35" stroke="#ccc" stroke-width="2" />
  
  <!-- Window -->
  <rect x="60" y="45" width="80" height="35" rx="5" fill="#444" stroke="#222" stroke-width="2" />

  <!-- Left Reel -->
  <g transform-origin="75 62.5">
    <circle cx="75" cy="62.5" r="12" fill="#fff" />
    <circle cx="75" cy="62.5" r="4" fill="#111" />
    <!-- Reel Spikes -->
    <path d="M75 52.5 L75 56.5" stroke="#111" stroke-width="2" />
    <path d="M75 68.5 L75 72.5" stroke="#111" stroke-width="2" />
    <path d="M65 62.5 L69 62.5" stroke="#111" stroke-width="2" />
    <path d="M81 62.5 L85 62.5" stroke="#111" stroke-width="2" />
  </g>

  <!-- Right Reel -->
  <g transform-origin="125 62.5">
    <circle cx="125" cy="62.5" r="12" fill="#fff" />
    <circle cx="125" cy="62.5" r="4" fill="#111" />
    <!-- Reel Spikes -->
    <path d="M125 52.5 L125 56.5" stroke="#111" stroke-width="2" />
    <path d="M125 68.5 L125 72.5" stroke="#111" stroke-width="2" />
    <path d="M115 62.5 L119 62.5" stroke="#111" stroke-width="2" />
    <path d="M131 62.5 L135 62.5" stroke="#111" stroke-width="2" />
  </g>

  <!-- Bottom Detail -->
  <path d="M30 100 L170 100 L160 120 L40 120 Z" fill="#222" opacity="0.5" />
  <circle cx="50" cy="110" r="3" fill="#666" />
  <circle cx="150" cy="110" r="3" fill="#666" />
</svg>
